<?xml version="1.0" encoding="utf-8"?>
<!-- Generator: Adobe Illustrator 28.4.1, SVG Export Plug-In . SVG Version: 6.00 Build 0)  -->
<svg version="1.1" xmlns="http://www.w3.org/2000/svg" xmlns:xlink="http://www.w3.org/1999/xlink" x="0px" y="0px"
	 viewBox="0 0 115.82 106.15" style="enable-background:new 0 0 115.82 106.15;" xml:space="preserve">
<style type="text/css">
	.st0{display:none;}
	.st1{display:inline;}
	.st2{clip-path:url(#SVGID_00000111898577796456995120000001298619694223583127_);fill:#1D1029;}
	.st3{opacity:0.04;clip-path:url(#SVGID_00000111898577796456995120000001298619694223583127_);}
	.st4{fill:url(#SVGID_00000031172978051999468450000009103936591821240479_);}
	.st5{fill:url(#SVGID_00000087381415591673022850000009279008721065691318_);}
	.st6{fill:#FFFFFF;}
</style>
<g id="Background" class="st0">
	<g class="st1">
		<defs>
			<rect id="SVGID_1_" x="-191.04" y="-129.06" width="500" height="500"/>
		</defs>
		<clipPath id="SVGID_00000114789505514842022380000016341740313040231580_">
			<use xlink:href="#SVGID_1_"  style="overflow:visible;"/>
		</clipPath>
		
			<rect x="-191.04" y="-129.06" style="clip-path:url(#SVGID_00000114789505514842022380000016341740313040231580_);fill:#1D1029;" width="500" height="500"/>
		<g style="opacity:0.04;clip-path:url(#SVGID_00000114789505514842022380000016341740313040231580_);">
			<g>
				
					<linearGradient id="SVGID_00000063603012682679579840000011454997306856910729_" gradientUnits="userSpaceOnUse" x1="-248.6283" y1="-584.6553" x2="-326.9321" y2="-360.3058" gradientTransform="matrix(1 0 0 1 192.023 474.4053)">
					<stop  offset="0" style="stop-color:#EC1B69"/>
					<stop  offset="1" style="stop-color:#F05B57"/>
				</linearGradient>
				<path style="fill:url(#SVGID_00000063603012682679579840000011454997306856910729_);" d="M1.3,94.18h-271.48
					c-8.85,0-16.02-7.17-16.02-16.02v-54.7c0-41.36,33.53-74.89,74.89-74.89h285.3c5.03,0,9.11,4.08,9.11,9.11v54.7
					C83.1,57.56,46.48,94.18,1.3,94.18z"/>
				
					<linearGradient id="SVGID_00000153707810484870539380000005018490344582890156_" gradientUnits="userSpaceOnUse" x1="-210.6393" y1="-423.9927" x2="-297.0917" y2="-327.7264" gradientTransform="matrix(1 0 0 1 170.3919 563.4037)">
					<stop  offset="0" style="stop-color:#EC1B69"/>
					<stop  offset="1" style="stop-color:#F05B57"/>
				</linearGradient>
				<path style="fill:url(#SVGID_00000153707810484870539380000005018490344582890156_);" d="M-89.52,293.31h-85.3
					c-5.45,0-9.88-4.42-9.88-9.88v-89.56c0-25.5,20.67-46.17,46.17-46.17h93.82c3.1,0,5.62,2.51,5.62,5.62v89.56
					C-39.09,270.73-61.67,293.31-89.52,293.31z"/>
			</g>
		</g>
	</g>
</g>
<g id="Object">
	<g id="Logogram">
		<g>
			<path class="st6" d="M90.63,44.84H7.04c-2.72,0-4.93-2.21-4.93-4.93V23.06C2.11,10.32,12.43,0,25.17,0h87.85
				c1.55,0,2.8,1.26,2.8,2.8v16.84C115.82,33.56,104.54,44.84,90.63,44.84z"/>
			<path class="st6" d="M62.67,106.15H36.4c-1.68,0-3.04-1.36-3.04-3.04V75.53c0-7.85,6.37-14.22,14.22-14.22h28.89
				c0.96,0,1.73,0.77,1.73,1.73v27.58C78.2,99.2,71.24,106.15,62.67,106.15z"/>
		</g>
	</g>
</g>
</svg>
