<?xml version="1.0" encoding="UTF-8"?>
<svg id="Layer_1" data-name="Layer 1" xmlns="http://www.w3.org/2000/svg" viewBox="0 0 546.8491337496 499.1707966259">
  <defs>
    <style>
      .cls-1 {
        fill: #1e3255;
      }

      .cls-1, .cls-2 {
        stroke-width: 0px;
      }

      .cls-2 {
        fill: #00a6a1;
      }
    </style>
  </defs>
  <path class="cls-2" d="M340.4790470032,124.8174723251c32.8596527015-4.3083261717,56.9274915471-33.6749163109,54.2801956544-67.0891701073-2.7877948367-35.1778852779-34.1079673325-61.2612369357-69.4480734306-57.3374341897-32.0138860319,3.5549930179-56.4043178477,31.3673135888-55.6967392842,63.5702261605.4214968321,19.201676406,9.3246930745,35.956175481,22.8837655081,47.0921032978,4.4506737861,3.6552833826,6.0594791287,9.7411060632,3.8045635106,15.0403195244l-16.0353663221,37.6819092211c-2.8261547458,6.6413481107.3956154476,14.2749700135,7.1025913545,16.9416769445,2.1523144155.8554721888,4.2584120732,1.8015292231,6.3145956323,2.833549427,6.6884892037,3.3571852941,14.8106222376.5439712405,17.7412268563-6.3418635195l18.6105640724-44.593163198c1.7927480391-4.2958476471,5.7886489274-7.2273766009,10.4089382149-7.7935318852l.0337382333-.0046216758ZM305.4148549497,57.6543554052c-8.5570327258.6775376709-16.0441475061-5.7096182713-16.7221473445-14.2671131647-.678462006-8.5579570609,5.7096182713-16.0450718412,14.2666509971-16.7230716797,8.5579570609-.6779998384,16.0450718412,5.7096182713,16.7230716797,14.2671131647.678462006,8.5579570609-5.7096182713,16.0446096736-14.2675753323,16.7230716796Z"/>
  <path class="cls-2" d="M323.3247729723,332.5923021597l28.1155025028,19.4928419808c10.2268441888,7.0901128299,14.9709943875,19.7618235118,11.9701402969,31.8387245194-2.6297335247,10.5808645543-3.4376024528,21.8217044115-2.0423185317,33.3675748709,5.839487361,48.3154608795,48.701370808,84.3409614973,97.2996782458,81.7477392114,51.5681963007-2.7517457656,90.6467759456-46.6904796716,88.0600240058-97.6194982105-2.6454472224-52.0798158107-48.3279394041-92.2329350769-100.3116243583-88.1131732774-15.1401477215,1.1997870352-29.1211791547,5.9841458133-41.2221128765,13.4310520142-9.9888278856,6.1477531363-22.7275528664,5.5718923328-32.3665198947-1.11105086l-29.7446432188-20.6219173764c-5.827471004-4.0402689759-13.8160376075-2.5756599179-17.847987567,3.257357097-1.348142828,1.9503471835-2.780862323,3.8383017439-4.292612474,5.6583176701-4.8033076489,5.7831029164-3.7957823266,14.388663238,2.3824738699,18.6720323604ZM409.3318485921,346.5040084561c14.9150721105-1.1822246672,27.9643737044,9.9513923117,29.146136204,24.8664644222,1.1817624996,14.9150721105-9.9513923117,27.964835872-24.8664644222,29.146136204-14.9150721105,1.1817624996-27.9643737044-9.9509301441-29.1465983716-24.8664644222-1.1817624996-14.9150721105,9.9513923117-27.9643737044,24.8669265898-29.146136204Z"/>
  <path class="cls-2" d="M.0020402015,326.6885735051c.2985602561,36.7769851014,31.6127245733,64.9631992437,67.6294440072,62.1093144432,27.5267010071-2.1809688054,49.4440741075-21.8401911147,55.7998026543-47.2201237172,2.4957049268-9.9643330039,9.9222757542-17.953361775,19.6818685206-21.1571074329l24.438497244-8.0223048368c7.122926728-2.3381057823,10.8503082529-10.3132695261,7.8161780966-17.1686012258-.9908872894-2.2387397528-1.8824085494-4.5315531124-2.6685556013-6.8728940678-2.2392019204-6.6649186572-9.4513269912-10.257347249-16.1314971785-8.0643620865l-21.2319785807,6.9694870918c-10.3617971219,3.4015533817-21.7916635189.9372758503-29.7266186833-6.5447550867-13.5184016867-12.7461196621-32.5971415166-19.4697336018-52.7943268878-16.2983396745C22.4273354713,269.1903049979-.2475302912,295.9299346179.0020402015,326.6885735051ZM32.1910877459,287.6104560277c8.5579570609-.678462006,16.0450718412,5.7096182713,16.7235338472,14.2675753323.6779998384,8.5574948933-5.7100804389,16.0441475061-14.2675753323,16.7221473445-8.5570327258.678462006-16.0446096736-5.7086939362-16.7226095121-14.2666509971-.6779998384-8.5579570609,5.7096182713-16.0450718412,14.2666509971-16.7230716797Z"/>
  <path class="cls-1" d="M174.542399428,259.7403645094c0,44.2765784063,35.8933206903,80.1698990966,80.1698990966,80.1698990966s80.1703612642-35.8933206903,80.1703612642-80.1698990966c0-44.2770405739-35.8937828578-80.1703612642-80.1703612642-80.1703612642s-80.1698990966,35.8933206903-80.1698990966,80.1703612642ZM225.2227718094,208.1855710686c8.5579570609-.6779998384,16.0450718412,5.7100804389,16.7230716797,14.2680374998.678462006,8.5574948933-5.7096182713,16.0441475061-14.2675753323,16.7221473445-8.5570327257.6779998384-16.0441475061-5.7091561038-16.7221473445-14.2671131647-.678462006-8.5574948933,5.7096182713-16.0446096736,14.2666509971-16.7230716797Z"/>
</svg>